<?xml version="1.0" encoding="utf-8"?>
<!-- Generated by IcoMoon.io -->
<!DOCTYPE svg PUBLIC "-//W3C//DTD SVG 1.1//EN" "http://www.w3.org/Graphics/SVG/1.1/DTD/svg11.dtd">
<svg version="1.1" xmlns="http://www.w3.org/2000/svg" xmlns:xlink="http://www.w3.org/1999/xlink" width="48" height="48" viewBox="0 0 48 48">
	<path d="M45 11.497v28.005c0 1.649-1.349 2.998-2.998 2.998h-36.004c-1.649 0-2.998-1.349-2.998-2.998v-31.005c0-1.648 1.349-2.997 2.998-2.997h15.005c1.648 0 2.997 1.349 2.997 2.998v0.002h18.002c1.649 0 2.998 1.349 2.998 2.997zM7.5 16.5h33c0.828 0 1.5-0.671 1.5-1.5s-0.672-1.5-1.5-1.5h-33c-0.829 0-1.5 0.671-1.5 1.5s0.671 1.5 1.5 1.5z" fill="#652d86" />
</svg>
